<?xml version="1.0" standalone="no"?>
<!DOCTYPE svg PUBLIC "-//W3C//DTD SVG 20010904//EN"
 "http://www.w3.org/TR/2001/REC-SVG-20010904/DTD/svg10.dtd">
<svg version="1.0" xmlns="http://www.w3.org/2000/svg"
 width="384.000000pt" height="148.000000pt" viewBox="0 0 384.000000 148.000000"
 preserveAspectRatio="xMidYMid meet">
<metadata>
Created by potrace 1.16, written by Peter Selinger 2001-2019
</metadata>
<g transform="translate(0.000000,148.000000) scale(0.100000,-0.100000)"
fill="#000000" stroke="none">
<path d="M822 1414 c-41 -29 -22 -114 27 -114 52 0 74 77 31 112 -27 22 -30
22 -58 2z m59 -25 c16 -31 -4 -71 -34 -67 -39 5 -37 88 2 88 11 0 25 -10 32
-21z"/>
<path d="M113 1335 c-11 -47 -17 -88 -12 -90 11 -7 14 0 34 83 15 63 20 72 39
72 20 0 25 -9 41 -80 17 -74 17 -81 2 -98 -21 -23 -21 -32 -2 -32 8 0 15 5 15
11 0 5 5 7 10 4 6 -3 10 -13 10 -21 0 -17 -33 -18 -60 -2 -15 10 -22 10 -32 0
-6 -6 -23 -12 -36 -12 -19 0 -23 4 -20 25 2 13 -1 25 -6 27 -11 3 -28 -51 -20
-64 3 -4 48 -8 101 -8 l96 0 -6 44 c-6 42 -5 45 23 55 32 11 39 31 15 51 -17
14 -34 6 -44 -23 -6 -16 -12 -3 -27 59 l-20 79 -40 3 -40 3 -21 -86z"/>
<path d="M390 1377 c-3 -26 -2 -55 2 -65 4 -12 7 -7 7 16 1 29 4 32 31 32 27
0 30 -3 30 -31 0 -17 4 -28 10 -24 6 3 10 31 10 61 0 30 -4 54 -10 54 -5 0
-10 -11 -10 -25 0 -21 -5 -25 -29 -25 -25 0 -30 5 -33 28 -3 19 -5 13 -8 -21z"/>
<path d="M500 1366 c0 -30 5 -58 10 -61 6 -4 10 17 10 54 0 34 -4 61 -10 61
-5 0 -10 -24 -10 -54z"/>
<path d="M540 1361 c0 -34 4 -61 10 -61 6 0 10 10 10 23 0 16 9 26 31 34 24 9
30 17 27 35 -2 19 -10 24 -40 26 l-38 3 0 -60z m60 29 c0 -13 -7 -20 -20 -20
-13 0 -20 7 -20 20 0 13 7 20 20 20 13 0 20 -7 20 -20z"/>
<path d="M690 1359 c0 -37 4 -58 10 -54 6 3 10 17 10 31 0 19 5 24 25 24 20 0
25 -5 25 -24 0 -14 5 -28 10 -31 6 -4 10 17 10 54 0 34 -4 61 -10 61 -5 0 -10
-11 -10 -25 0 -20 -5 -25 -25 -25 -20 0 -25 5 -25 25 0 14 -4 25 -10 25 -6 0
-10 -27 -10 -61z"/>
<path d="M920 1360 c0 -38 4 -59 10 -55 6 3 10 14 10 23 0 10 13 22 31 29 24
9 30 17 27 35 -2 19 -10 24 -40 26 l-38 3 0 -61z m60 30 c0 -13 -7 -20 -20
-20 -13 0 -20 7 -20 20 0 13 7 20 20 20 13 0 20 -7 20 -20z"/>
<path d="M3090 1340 c0 -35 3 -60 7 -57 7 8 5 108 -3 116 -2 2 -4 -24 -4 -59z"/>
<path d="M3311 1341 c-1 -40 3 -61 8 -55 6 5 6 32 2 64 l-9 55 -1 -64z"/>
<path d="M3230 1341 c0 -65 17 -76 19 -11 0 27 -4 52 -9 55 -6 4 -10 -14 -10
-44z"/>
<path d="M3451 1343 c0 -28 2 -54 7 -57 4 -2 6 14 4 37 -5 68 -10 76 -11 20z"/>
<path d="M2672 1360 c0 -14 2 -19 5 -12 2 6 2 18 0 25 -3 6 -5 1 -5 -13z"/>
<path d="M633 1353 c9 -2 23 -2 30 0 6 3 -1 5 -18 5 -16 0 -22 -2 -12 -5z"/>
<path d="M2625 1340 c10 -11 20 -20 23 -20 3 0 -3 9 -13 20 -10 11 -20 20 -23
20 -3 0 3 -9 13 -20z"/>
<path d="M2660 1321 c0 -6 5 -13 10 -16 6 -3 10 1 10 9 0 9 -4 16 -10 16 -5 0
-10 -4 -10 -9z"/>
<path d="M3160 1269 l-45 -6 58 -1 c31 -1 57 0 57 2 0 9 -28 11 -70 5z"/>
<path d="M3345 1270 c-14 -6 -4 -9 38 -9 36 -1 56 3 52 9 -7 12 -62 12 -90 0z"/>
<path d="M2136 1244 c-3 -8 -6 -31 -6 -50 0 -19 -4 -34 -10 -34 -5 0 -10 -4
-10 -10 0 -5 25 -10 56 -10 44 0 54 3 47 13 -18 22 -24 68 -12 83 6 8 8 14 3
15 -5 0 -21 3 -35 5 -18 3 -29 -1 -33 -12z"/>
<path d="M3092 1190 c-1 -51 2 -60 10 -44 6 14 6 36 0 65 l-10 44 0 -65z"/>
<path d="M3230 1196 c0 -30 5 -58 10 -61 6 -4 10 17 10 54 0 34 -4 61 -10 61
-5 0 -10 -24 -10 -54z"/>
<path d="M3310 1190 c0 -40 4 -59 10 -55 12 8 11 104 -2 111 -4 3 -8 -22 -8
-56z"/>
<path d="M3450 1195 c0 -30 5 -55 10 -55 6 0 10 25 10 55 0 30 -4 55 -10 55
-5 0 -10 -25 -10 -55z"/>
<path d="M1595 1194 c-9 -9 -14 -18 -11 -21 2 -3 14 5 25 16 12 12 17 21 12
21 -5 0 -17 -7 -26 -16z"/>
<path d="M1673 1203 c9 -2 23 -2 30 0 6 3 -1 5 -18 5 -16 0 -22 -2 -12 -5z"/>
<path d="M1833 1203 c9 -2 23 -2 30 0 6 3 -1 5 -18 5 -16 0 -22 -2 -12 -5z"/>
<path d="M1903 1203 c9 -2 23 -2 30 0 6 3 -1 5 -18 5 -16 0 -22 -2 -12 -5z"/>
<path d="M1983 1203 c9 -2 23 -2 30 0 6 3 -1 5 -18 5 -16 0 -22 -2 -12 -5z"/>
<path d="M2063 1203 c9 -2 23 -2 30 0 6 3 -1 5 -18 5 -16 0 -22 -2 -12 -5z"/>
<path d="M1640 1130 c0 -13 -7 -20 -20 -20 -19 0 -20 -7 -20 -200 l0 -200 45
0 45 0 0 84 c0 67 3 85 16 90 20 8 248 8 268 0 14 -5 16 -32 16 -195 l0 -188
-32 -6 c-18 -3 -148 -5 -290 -3 l-256 3 -6 -35 c-3 -19 -2 -38 2 -42 5 -5 215
-7 468 -6 l459 3 0 110 0 110 -35 2 c-30 3 -38 -2 -55 -29 -43 -70 -119 -73
-163 -8 -28 42 -24 83 13 120 47 47 140 23 161 -42 4 -13 15 -18 40 -18 l34 0
0 105 0 105 -32 0 c-26 0 -37 -6 -50 -29 -9 -16 -30 -37 -48 -46 -76 -39 -163
44 -130 125 33 80 143 81 183 0 9 -18 22 -26 45 -28 l32 -3 0 94 c0 78 -3 97
-18 110 -16 15 -54 17 -320 17 -295 0 -302 0 -302 20 0 15 -7 20 -25 20 -18 0
-25 -5 -25 -20z"/>
<path d="M1513 1093 c-19 -17 -21 -33 -27 -200 l-6 -183 50 0 51 0 -3 198 c-3
191 -4 197 -24 200 -11 2 -30 -5 -41 -15z"/>
<path d="M2360 979 l0 -90 33 3 32 3 3 88 3 87 -36 0 -35 0 0 -91z"/>
<path d="M112 1017 c-23 -24 -39 -46 -35 -50 7 -8 93 71 93 85 0 17 -17 6 -58
-35z"/>
<path d="M222 1051 c4 -12 77 -91 83 -91 16 0 0 31 -33 63 -36 35 -58 47 -50
28z"/>
<path d="M730 1015 c-24 -24 -41 -48 -37 -52 8 -7 97 75 97 89 0 17 -18 6 -60
-37z"/>
<path d="M842 1051 c4 -12 77 -91 83 -91 16 0 0 31 -33 63 -36 35 -58 47 -50
28z"/>
<path d="M3281 1018 c-5 -13 -19 -45 -31 -73 -12 -27 -26 -60 -31 -72 -12 -32
8 -30 23 2 10 22 18 25 60 25 43 0 50 -3 58 -25 9 -23 30 -35 30 -17 0 21 -77
182 -88 182 -7 0 -16 -10 -21 -22z m38 -35 c8 -21 16 -44 18 -50 4 -9 -7 -13
-37 -13 -29 0 -40 4 -36 13 2 6 10 29 17 50 7 20 15 37 19 37 3 0 12 -17 19
-37z"/>
<path d="M2156 955 c-3 -8 -1 -15 4 -15 6 0 10 7 10 15 0 8 -2 15 -4 15 -2 0
-6 -7 -10 -15z"/>
<path d="M2105 930 c3 -5 11 -10 16 -10 6 0 7 5 4 10 -3 6 -11 10 -16 10 -6 0
-7 -4 -4 -10z"/>
<path d="M2131 902 c-13 -25 5 -52 34 -52 15 0 26 7 30 20 13 41 -44 70 -64
32z"/>
<path d="M380 902 c0 -13 74 -82 88 -82 21 0 13 15 -26 53 -36 35 -62 47 -62
29z"/>
<path d="M565 870 c-21 -22 -36 -43 -32 -47 8 -7 87 65 87 79 0 17 -17 7 -55
-32z"/>
<path d="M1000 905 c0 -8 84 -85 92 -85 16 0 7 17 -30 53 -33 32 -62 47 -62
32z"/>
<path d="M1190 865 c-24 -25 -40 -45 -34 -45 13 0 89 78 83 85 -3 2 -25 -16
-49 -40z"/>
<path d="M1438 893 c7 -3 16 -2 19 1 4 3 -2 6 -13 5 -11 0 -14 -3 -6 -6z"/>
<path d="M3160 777 c0 -7 11 -29 25 -50 l26 -37 94 0 93 0 21 34 c40 64 37 66
-119 66 -106 0 -140 -3 -140 -13z"/>
<path d="M3490 767 c0 -13 14 -36 30 -52 17 -16 30 -24 30 -18 0 5 -9 18 -20
28 -43 39 -28 45 105 45 134 0 143 -4 103 -47 -12 -13 -18 -26 -14 -30 11 -11
55 49 56 75 0 22 -1 22 -145 22 -145 0 -145 0 -145 -23z"/>
<path d="M90 595 c0 -83 2 -96 15 -91 25 9 135 86 135 94 0 6 -113 77 -142 90
-5 2 -8 -40 -8 -93z"/>
<path d="M1560 660 c0 -27 3 -30 30 -30 27 0 30 3 30 30 0 27 -3 30 -30 30
-27 0 -30 -3 -30 -30z"/>
<path d="M1640 670 c0 -18 7 -20 55 -20 30 0 55 5 55 10 0 6 -15 10 -34 10
-19 0 -38 5 -41 10 -11 18 -35 11 -35 -10z"/>
<path d="M2136 674 c-9 -8 -16 -19 -16 -24 0 -11 29 -40 40 -40 13 0 40 30 40
44 0 16 -20 36 -36 36 -7 0 -20 -7 -28 -16z"/>
<path d="M2604 681 c10 -16 -5 -41 -25 -41 -10 0 -19 -4 -19 -10 0 -6 38 -10
95 -10 l95 0 0 35 0 35 -76 0 c-42 0 -73 -4 -70 -9z"/>
<path d="M2770 642 c0 -24 28 -62 46 -62 12 0 44 54 44 75 0 11 -29 4 -33 -7
-3 -10 -9 -10 -26 0 -27 16 -31 15 -31 -6z"/>
<path d="M1573 595 c-19 -21 -16 -25 17 -25 34 0 37 5 16 26 -17 17 -18 17
-33 -1z"/>
<path d="M2580 586 c0 -8 7 -16 15 -20 8 -3 15 -12 15 -20 0 -8 12 -24 27 -36
21 -16 25 -25 17 -38 -5 -9 -7 -35 -4 -57 4 -31 9 -40 25 -40 26 0 44 77 23
102 -11 14 -11 17 1 21 27 9 51 43 51 72 l0 30 -85 0 c-66 0 -85 -3 -85 -14z"/>
<path d="M2762 527 c-30 -31 -41 -57 -24 -57 10 0 82 73 82 83 0 17 -29 4 -58
-26z"/>
<path d="M3210 505 c0 -13 15 -15 92 -13 62 2 93 7 96 16 3 9 -20 12 -92 12
-80 0 -96 -3 -96 -15z"/>
<path d="M3210 455 c0 -13 15 -15 92 -13 62 2 93 7 96 16 3 9 -20 12 -92 12
-80 0 -96 -3 -96 -15z"/>
<path d="M3550 455 c0 -12 16 -15 85 -15 69 0 85 3 85 15 0 12 -16 15 -85 15
-69 0 -85 -3 -85 -15z"/>
<path d="M109 412 c-34 -30 -42 -79 -20 -121 15 -28 46 -43 89 -43 28 0 43 7
64 31 39 43 38 92 -1 132 -40 39 -89 40 -132 1z m49 -39 c-4 -22 -22 -20 -26
1 -2 10 3 16 13 16 10 0 15 -7 13 -17z m57 -1 c0 -18 -20 -15 -23 4 -3 10 1
15 10 12 7 -3 13 -10 13 -16z m-55 -57 c0 -8 -7 -15 -15 -15 -8 0 -15 7 -15
15 0 8 7 15 15 15 8 0 15 -7 15 -15z m60 0 c0 -8 -6 -15 -14 -15 -17 0 -28 14
-19 24 12 12 33 6 33 -9z"/>
<path d="M538 382 c-50 -77 -49 -92 1 -92 33 0 40 -4 43 -22 5 -32 28 -35 28
-4 0 16 6 26 15 26 8 0 15 5 15 10 0 6 -7 10 -15 10 -12 0 -15 14 -15 65 0 86
-20 88 -72 7z m39 -69 c-3 -2 -17 -3 -31 -1 l-25 3 27 42 27 43 3 -41 c2 -23
1 -43 -1 -46z"/>
<path d="M3215 420 c-13 -22 18 -31 97 -28 75 3 99 10 84 26 -14 13 -173 15
-181 2z"/>
<path d="M3552 408 c3 -9 32 -14 86 -16 68 -2 82 0 82 13 0 12 -15 15 -86 15
-64 0 -85 -3 -82 -12z"/>
<path d="M2581 384 c-38 -31 -55 -60 -41 -69 5 -3 28 12 52 34 30 29 39 44 32
51 -8 8 -20 4 -43 -16z"/>
<path d="M1405 391 c-1 -3 -2 -44 -1 -91 l1 -85 48 -3 c39 -3 47 -6 47 -23 0
-17 7 -19 60 -19 53 0 60 2 60 20 0 19 7 20 250 20 243 0 250 -1 250 -20 0
-18 7 -20 60 -20 53 0 60 2 60 20 0 17 7 20 50 20 l51 0 -3 93 -3 92 -463 1
c-255 0 -465 -2 -467 -5z"/>
<path d="M3210 365 c0 -12 16 -15 96 -15 72 0 95 3 92 13 -3 8 -34 13 -96 15
-77 2 -92 0 -92 -13z"/>
<path d="M3550 365 c0 -12 16 -15 85 -15 69 0 85 3 85 15 0 12 -16 15 -85 15
-69 0 -85 -3 -85 -15z"/>
<path d="M2413 353 c-7 -3 -13 -16 -13 -29 0 -17 6 -24 19 -24 11 0 23 5 26
10 3 6 22 10 41 10 19 0 34 5 34 10 0 6 -14 10 -31 10 -17 0 -38 4 -47 9 -9 4
-23 6 -29 4z"/>
<path d="M2656 352 c-8 -14 -46 -150 -46 -166 0 -11 6 -16 17 -14 12 2 25 30
44 91 15 48 26 87 25 88 -9 5 -37 6 -40 1z"/>
<path d="M2968 293 c-85 -31 -96 -37 -88 -53 9 -16 14 -16 87 10 131 47 133
48 127 65 -8 20 -14 19 -126 -22z"/>
<path d="M3210 315 c0 -12 16 -15 96 -15 72 0 95 3 92 13 -3 8 -34 13 -96 15
-77 2 -92 0 -92 -13z"/>
<path d="M3550 315 c0 -12 16 -15 85 -15 69 0 85 3 85 15 0 12 -16 15 -85 15
-69 0 -85 -3 -85 -15z"/>
<path d="M2693 290 c-12 -43 6 -113 31 -118 21 -4 20 26 -3 98 l-18 55 -10
-35z"/>
<path d="M2387 251 c-3 -16 -9 -40 -13 -55 -6 -26 -6 -26 51 -26 57 0 57 0 51
26 -4 15 -10 39 -13 55 -5 25 -10 29 -38 29 -28 0 -33 -4 -38 -29z"/>
<path d="M3180 238 c-17 -23 -29 -46 -27 -52 2 -7 58 -12 150 -14 167 -3 170
-1 122 71 l-26 37 -94 0 -95 0 -30 -42z"/>
<path d="M3511 244 c-12 -15 -21 -37 -21 -50 l0 -24 145 0 145 0 0 28 c0 17
-10 38 -25 52 -31 29 -46 18 -17 -13 40 -43 31 -47 -103 -47 -69 0 -125 4
-125 9 0 4 9 20 20 34 11 14 20 28 20 31 0 14 -20 4 -39 -20z"/>
<path d="M2800 235 c-26 -32 13 -81 48 -59 22 14 27 41 12 59 -16 19 -44 19
-60 0z"/>
<path d="M2890 190 c0 -19 7 -20 110 -20 103 0 110 1 110 20 0 19 -7 20 -110
20 -103 0 -110 -1 -110 -20z"/>
<path d="M90 55 l0 -26 83 3 c74 3 82 5 82 23 0 18 -8 20 -82 23 l-83 3 0 -26z"/>
<path d="M1047 73 c-20 -3 -27 -9 -25 -21 3 -14 16 -17 83 -17 73 0 80 2 80
20 0 17 -7 20 -55 21 -30 1 -68 0 -83 -3z"/>
<path d="M1961 71 c-8 -5 -11 -16 -8 -25 6 -14 20 -16 84 -14 70 3 78 5 78 23
0 18 -8 20 -70 23 -38 1 -76 -2 -84 -7z"/>
<path d="M2890 55 c0 -25 1 -25 80 -25 79 0 80 0 80 25 0 25 -1 25 -80 25 -79
0 -80 0 -80 -25z"/>
<path d="M3354 65 c-11 -28 10 -36 87 -33 66 3 74 5 74 23 0 18 -8 20 -78 23
-64 2 -78 0 -83 -13z"/>
</g>
</svg>
